<svg xmlns="http://www.w3.org/2000/svg" xmlns:xlink="http://www.w3.org/1999/xlink" viewBox="0 0 434.72 586.96"><defs><style>.cls-1{fill:#ffcc83;}.cls-2{fill:url(#radial-gradient);}.cls-3{fill:url(#radial-gradient-2);}.cls-4{fill:url(#radial-gradient-3);}.cls-5{fill:url(#radial-gradient-4);}.cls-6{fill:url(#radial-gradient-5);}.cls-7{fill:url(#radial-gradient-6);}.cls-8{fill:url(#radial-gradient-7);}.cls-9{fill:#8fb4dd;}.cls-10{fill:url(#radial-gradient-8);}.cls-11{fill:#ffee83;}.cls-12{fill:url(#radial-gradient-9);}.cls-13{fill:#ffba59;}.cls-14{fill:#ffcf8c;}.cls-15{fill:#493100;}</style><radialGradient id="radial-gradient" cx="1330.94" cy="544" fy="520.7872152419607" r="23.21" gradientTransform="matrix(-0.94, 0.35, 0.1, 0.28, 1448.58, -73.31)" gradientUnits="userSpaceOnUse"><stop offset="0.28" stop-color="#ffc06e"/><stop offset="0.58" stop-color="#ffc77b"/><stop offset="0.88" stop-color="#ffcc83"/></radialGradient><radialGradient id="radial-gradient-2" cx="176.34" cy="543.97" fy="520.7580518819799" r="23.21" gradientTransform="matrix(0.94, 0.35, -0.1, 0.28, 67.83, 330.38)" xlink:href="#radial-gradient"/><radialGradient id="radial-gradient-3" cx="82.49" cy="431.37" fx="123.48988055402296" fy="389.4223339529489" r="59.85" gradientTransform="translate(0 -238.71) scale(1 1.55)" gradientUnits="userSpaceOnUse"><stop offset="0" stop-color="#ffee83"/><stop offset="0.59" stop-color="#ffe58b"/><stop offset="1" stop-color="#ffdb94"/></radialGradient><radialGradient id="radial-gradient-4" cx="352.23" cy="431.37" fx="303.4460983029231" fy="377.6604227673382" r="72.56" gradientTransform="translate(0 -159.25) scale(1 1.37)" xlink:href="#radial-gradient-3"/><radialGradient id="radial-gradient-5" cx="99.82" cy="439.08" fx="111.07662590550996" fy="376.4607827206184" r="63.63" gradientTransform="matrix(-0.2, 0.98, -0.37, -0.08, 283.76, 374.94)" gradientUnits="userSpaceOnUse"><stop offset="0" stop-color="#ffcf8c"/><stop offset="0.06" stop-color="#ffce8b" stop-opacity="0.98"/><stop offset="0.15" stop-color="#fecd8a" stop-opacity="0.91"/><stop offset="0.25" stop-color="#fdcb87" stop-opacity="0.8"/><stop offset="0.36" stop-color="#fcc782" stop-opacity="0.64"/><stop offset="0.48" stop-color="#fac37d" stop-opacity="0.44"/><stop offset="0.61" stop-color="#f8be76" stop-opacity="0.2"/><stop offset="0.7" stop-color="#f6ba71" stop-opacity="0"/></radialGradient><radialGradient id="radial-gradient-6" cx="937.31" cy="439.12" fx="948.5727494968456" fy="376.4979227954236" r="63.63" gradientTransform="matrix(0.2, 0.98, 0.37, -0.08, -17.44, -445.42)" xlink:href="#radial-gradient-5"/><radialGradient id="radial-gradient-7" cx="217.36" cy="384.23" r="185.66" gradientTransform="translate(0 -10.89) scale(1 1.03)" gradientUnits="userSpaceOnUse"><stop offset="0.44" stop-color="#ffee83"/><stop offset="0.7" stop-color="#ffe987"/><stop offset="1" stop-color="#ffdb94"/></radialGradient><radialGradient id="radial-gradient-8" cx="216.52" cy="363.25" fy="337.59832516288253" r="127.9" gradientTransform="translate(0 262.2) scale(1 0.28)" gradientUnits="userSpaceOnUse"><stop offset="0" stop-color="#ffcf8c"/><stop offset="0.22" stop-color="#fcc984" stop-opacity="0.71"/><stop offset="0.43" stop-color="#fac47d" stop-opacity="0.45"/><stop offset="0.62" stop-color="#f8bf78" stop-opacity="0.26"/><stop offset="0.78" stop-color="#f7bc74" stop-opacity="0.12"/><stop offset="0.91" stop-color="#f6bb72" stop-opacity="0.03"/><stop offset="1" stop-color="#f6ba71" stop-opacity="0"/></radialGradient><radialGradient id="radial-gradient-9" cx="217.36" cy="192.12" fx="227.0135877982107" fy="-142.8491323220016" r="335.11" gradientTransform="translate(69.02 416.32) rotate(-92.56) scale(1 0.82)" gradientUnits="userSpaceOnUse"><stop offset="0" stop-color="#f8bc73"/><stop offset="0.02" stop-color="#f8bc73" stop-opacity="0.84"/><stop offset="0.05" stop-color="#f8bc73" stop-opacity="0.66"/><stop offset="0.08" stop-color="#f8bc73" stop-opacity="0.5"/><stop offset="0.11" stop-color="#f8bc73" stop-opacity="0.37"/><stop offset="0.14" stop-color="#f8bc73" stop-opacity="0.25"/><stop offset="0.18" stop-color="#f8bc73" stop-opacity="0.16"/><stop offset="0.23" stop-color="#f8bc73" stop-opacity="0.09"/><stop offset="0.28" stop-color="#f8bc73" stop-opacity="0.04"/><stop offset="0.35" stop-color="#f8bc73" stop-opacity="0.01"/><stop offset="0.52" stop-color="#f8bc73" stop-opacity="0"/><stop offset="0.66" stop-color="#f8bc73" stop-opacity="0.01"/><stop offset="0.72" stop-color="#f8bd74" stop-opacity="0.04"/><stop offset="0.78" stop-color="#f9be75" stop-opacity="0.09"/><stop offset="0.82" stop-color="#f9bf77" stop-opacity="0.16"/><stop offset="0.86" stop-color="#fac179" stop-opacity="0.25"/><stop offset="0.89" stop-color="#fbc37c" stop-opacity="0.37"/><stop offset="0.92" stop-color="#fcc680" stop-opacity="0.51"/><stop offset="0.95" stop-color="#fdc984" stop-opacity="0.67"/><stop offset="0.98" stop-color="#fecc88" stop-opacity="0.84"/><stop offset="1" stop-color="#ffcf8c"/></radialGradient></defs><g id="Layer_2" data-name="Layer 2"><g id="Layer_1-2" data-name="Layer 1"><path class="cls-1" d="M273.81,533.57V556h4.3a15.49,15.49,0,0,1,0,31H258.4a15.48,15.48,0,0,1-15.48-15.38h0v-38Z"/><path class="cls-2" d="M273.81,544a61.91,61.91,0,0,1-30.9,10.37V533.6h30.9Z"/><path class="cls-1" d="M160.89,533.57V556H156.6a15.49,15.49,0,1,0,0,31h19.7a15.49,15.49,0,0,0,15.49-15.38h0v-38Z"/><path class="cls-3" d="M160.89,544a61.73,61.73,0,0,0,30.91,10.37v-20.8H160.89Z"/><path class="cls-4" d="M107.84,479.53a39.82,39.82,0,0,1-54.13,15.62h0A39.82,39.82,0,0,1,38.09,441s69-88.14,88.3-77.51h0C145.66,374.15,107.84,479.53,107.84,479.53Z"/><path class="cls-5" d="M326.87,479.53A39.84,39.84,0,0,0,381,495.15h0A39.83,39.83,0,0,0,396.63,441s-69-88.14-88.31-77.51h0C289.06,374.15,326.87,479.53,326.87,479.53Z"/><path class="cls-6" d="M119.53,384.24s-21.1,16.67-35,47.13,9.81,62.56,9.81,62.56,8.27-5.38,10.12-9.62S119.53,384.24,119.53,384.24Z"/><path class="cls-7" d="M315.18,384.27s21.1,16.67,35,47.14-9.8,62.56-9.8,62.56-8.28-5.38-10.12-9.62S315.18,384.27,315.18,384.27Z"/><path class="cls-8" d="M278.14,308.22c0-51.54,27.6-83.75-24-83.75H180.55c-51.58,0-24,32.21-24,83.75L103.3,417.55c-27.24,55.88,10.36,123.18,72.45,126.33q2.38.12,4.8.12h73.61c1.61,0,3.22,0,4.81-.12,62.08-3.15,99.69-70.45,72.45-126.33Z"/><rect class="cls-9" x="204.58" y="411.83" width="25.55" height="89.85"/><rect class="cls-9" x="204.58" y="411.83" width="25.55" height="89.85" transform="translate(-239.39 674.11) rotate(-90)"/><path class="cls-10" d="M96.41,376a340.12,340.12,0,0,0,240.21-1.48l-120.1-45.28Z"/><path class="cls-11" d="M432.6,263.55c-2,11.49-8.19,45.41-35.24,74.73a121.43,121.43,0,0,1-14.79,13.63c-41.72,32.55-98.65,32.44-169.08,32.31-69.33-.13-128.65-.25-168.36-31.8a104.71,104.71,0,0,1-16.41-16.28C5.41,307.32,2.27,273.62.74,257.2a173.19,173.19,0,0,1,5-59.88c10.37-39.9,31.89-67.58,38.9-76.12C96.9,57.63,173.41,49.29,204.45,47.9,189.34,41.1,181.79,30,184,22.19c.87-3,3.4-6.2,6.78-7,7.13-1.75,17.41,7.31,24.23,24.23C223.15,15.19,234.41-.93,244,0c.33,0,4.05.47,6,3.39,7.32,11-21.46,40.94-24.5,44.06h-.31c29.36.16,87.07,4.85,137.47,47.39,4.84,4.09,50.27,43.66,66.43,102.45A151.61,151.61,0,0,1,432.6,263.55Z"/><path class="cls-12" d="M432.6,263.55c-2,11.49-8.19,45.41-35.24,74.73a121.43,121.43,0,0,1-14.79,13.63c-41.72,32.55-98.65,32.44-169.08,32.31-69.33-.13-128.65-.25-168.36-31.8a104.71,104.71,0,0,1-16.41-16.28C5.41,307.32,2.27,273.62.74,257.2a173.19,173.19,0,0,1,5-59.88c10.37-39.9,31.89-67.58,38.9-76.12C96.9,57.63,173.41,49.29,204.45,47.9,189.34,41.1,181.79,30,184,22.19c.87-3,3.4-6.2,6.78-7,7.13-1.75,17.41,7.31,24.23,24.23C223.15,15.19,234.41-.93,244,0c.33,0,4.05.47,6,3.39,7.32,11-21.46,40.94-24.5,44.06h-.31c29.36.16,87.07,4.85,137.47,47.39,4.84,4.09,50.27,43.66,66.43,102.45A151.61,151.61,0,0,1,432.6,263.55Z"/><path class="cls-13" d="M250.46,241c0,5.86-16.47,15.13-36.78,15.13S176.9,246.81,176.9,241s16.46-10.6,36.78-10.6S250.46,235.1,250.46,241Z"/><path class="cls-14" d="M137.76,272.37c0,42.87-41,77.89-92.63,80.05a104.71,104.71,0,0,1-16.41-16.28C5.41,307.32,2.27,273.62.74,257.2a173.19,173.19,0,0,1,5-59.88,116.52,116.52,0,0,1,34.36-5.1C94,192.22,137.76,228.1,137.76,272.37Z"/><path class="cls-14" d="M432.6,263.55c-2,11.49-8.19,45.41-35.24,74.73a121.43,121.43,0,0,1-14.79,13.63C334.32,347,297,313.27,297,272.37c0-44.27,43.74-80.15,97.69-80.15a116.49,116.49,0,0,1,34.41,5.12A151.61,151.61,0,0,1,432.6,263.55Z"/><circle class="cls-15" cx="156.61" cy="215.86" r="14.49"/><circle class="cls-15" cx="268.25" cy="215.86" r="14.49"/></g></g></svg>