<svg width="165" height="165" viewBox="0 0 165 165" fill="none" xmlns="http://www.w3.org/2000/svg">
<circle cx="82.5" cy="82.5" r="82.5" fill="#F29E0D"/>
<path d="M52 80H58.871C59.6972 86.1042 62.5396 91.6845 66.8783 95.72C71.2169 99.7555 76.7617 101.976 82.4983 101.976C88.2349 101.976 93.7797 99.7555 98.1183 95.72C102.457 91.6845 105.299 86.1042 106.126 80H113C112.225 87.4386 109.122 94.3731 104.2 99.6663C99.2778 104.959 92.8293 108.297 85.9116 109.132L85.9116 122H79.0918L79.0918 109.132C72.1735 108.298 65.7242 104.961 60.8016 99.6674C55.879 94.3741 52.7755 87.4392 52 80Z" fill="white"/>
<rect x="70" y="42" width="25" height="51" rx="12.5" fill="white"/>
</svg>
