<svg xmlns="http://www.w3.org/2000/svg" xmlns:xlink="http://www.w3.org/1999/xlink" viewBox="0 0 487.16 105.22"><defs><style>.cls-1{fill:url(#linear-gradient);}.cls-2{fill:#fd8d45;}.cls-3{fill:#fef2c2;}.cls-4{fill:#b26936;}.cls-5{fill:#fff;opacity:0.65;isolation:isolate;}.cls-6{fill:#f29e0d;}</style><linearGradient id="linear-gradient" x1="441.44" y1="48.28" x2="471.18" y2="78.09" gradientUnits="userSpaceOnUse"><stop offset="0.29" stop-color="#bc6e39" stop-opacity="0.8"/><stop offset="0.37" stop-color="#bc6e39" stop-opacity="0.67"/><stop offset="0.61" stop-color="#bc6e39" stop-opacity="0.31"/><stop offset="0.78" stop-color="#bc6e39" stop-opacity="0.09"/><stop offset="0.87" stop-color="#bc6e39" stop-opacity="0"/></linearGradient></defs><g id="Layer_2" data-name="Layer 2"><g id="Layer_1-2" data-name="Layer 1"><path class="cls-1" d="M481.58,48.1,461.47,68.58l-20.1,20.49a18.94,18.94,0,0,1-27.06,0,19.82,19.82,0,0,1,0-27.57L434.41,41l20.11-20.49a18.94,18.94,0,0,1,27.06,0A19.83,19.83,0,0,1,481.58,48.1Z"/><path class="cls-2" d="M440.2,87.69a18.94,18.94,0,0,1-27.06,0,19.83,19.83,0,0,1,0-27.58l20.11-20.48L460.31,67.2Z"/><path class="cls-3" d="M433.25,39.63l20.1-20.49a19,19,0,0,1,27.07,0,19.84,19.84,0,0,1,0,27.57L460.31,67.2Z"/><path class="cls-4" d="M432.56,40.31l27,27.7,1.39-1.42-27-27.7Z"/><path class="cls-5" d="M443.23,34.93c-8,8.83-22.37,25.48-22.37,25.48-1.87,1.74-4.44,6.22-2.76,7.76s6-1.83,7.83-3.57l30.51-29.24c1.86-1.74,8.1-7.37,6.88-11.33C461,16.54,452.08,25.1,443.23,34.93Z"/><path class="cls-6" d="M62,22.94v78H12.31C2.28,101,0,99.07,0,88.75V22.94c0-5.66,4.07-8.14,8.74-8.14s8.53,2.58,8.53,8.14V39.41h5.86V23.14c0-5.56,3.67-8,8.33-8,4.37,0,7.95,2.58,7.95,8V39.41h5.85V22.94c0-5.66,3.67-8.14,8.54-8.14C58.46,14.8,62,17.38,62,22.94ZM23.13,85.57V54.1H17.27V83.39c0,1.88.2,2.18,2,2.18Zm16.28,0h5.85V54.1H39.41ZM89.63,21.85v83.37H69.78V21.85c0-6.46,4.66-9.83,9.93-9.83S89.63,15.39,89.63,21.85Z"/><path class="cls-6" d="M260.56,22.94v78H210.83c-10,0-12.31-1.88-12.31-12.2V22.94c0-5.66,4.07-8.14,8.74-8.14s8.53,2.58,8.53,8.14V39.41h5.86V23.14c0-5.56,3.67-8,8.34-8,4.37,0,7.94,2.58,7.94,8V39.41h5.85V22.94c0-5.66,3.68-8.14,8.54-8.14C257,14.8,260.56,17.38,260.56,22.94ZM221.65,85.57V54.1h-5.86V83.39c0,1.88.2,2.18,2,2.18Zm16.28,0h5.85V54.1h-5.85Zm50.22-63.72v83.37H268.3V21.85c0-6.46,4.67-9.83,9.93-9.83S288.15,15.39,288.15,21.85Z"/><path class="cls-6" d="M298.38,42.39v-7c0-14.59,11.51-22.23,27.69-22.23s27.8,7.54,27.8,22.23v7c0,14.69-11.62,22.24-27.7,22.24S298.38,57.08,298.38,42.39Zm71.47,27.2c12.4,0,14.69,3.37,14.69,15.28v20.35H364.49V87.65a2.15,2.15,0,0,0-2.39-2.38H310.39c-5.56,0-8.64-3.18-8.64-7.84s3.08-7.84,8.64-7.84Zm-52.31-27.2c0,4.77,3.77,7.55,8.53,7.55s8.64-2.78,8.64-7.55v-7c0-4.76-3.87-7.64-8.64-7.54s-8.53,2.88-8.53,7.54Zm68.49.1c6.05,0,7.84,4,7.84,7.94S392,58.27,386,58.27h-2.59v7.25H363.59V21.85c0-6.46,4.67-9.83,9.93-9.83,5.06,0,9.63,3.18,9.92,9.13H386c6.05,0,7.84,4,7.84,7.94S392,36.93,386,36.93h-2.59v5.56Z"/><path class="cls-6" d="M171.32,69.59H111.87c-5.56,0-8.64,3.17-8.64,7.84s3.08,7.84,8.64,7.84h51.71A2.15,2.15,0,0,1,166,87.65v17.57h20V84.87C186,73,183.73,69.59,171.32,69.59Z"/><path class="cls-6" d="M127.65,64.63c16.08,0,27.69-7.55,27.69-22.24v-7c0-13.63-10-21.1-24.37-22.11,2.44-2.65,8.24-9.43,6.4-12.2a2.62,2.62,0,0,0-1.8-1c-2.87-.29-6.24,4.54-8.67,11.8-2.05-5.07-5.13-7.79-7.27-7.26a3,3,0,0,0-2,2.1c-.58,2,1,4.76,4.36,6.79-13.17,1.6-22.1,9.06-22.1,21.9v7C99.86,57.08,111.47,64.63,127.65,64.63ZM137.93,30a2.68,2.68,0,1,1-2.68,2.68A2.68,2.68,0,0,1,137.93,30Zm-10.1,5.36c3.76,0,6.81.88,6.81,2s-3,2.8-6.81,2.8S121,38.37,121,37.28,124.07,35.32,127.83,35.32ZM117.27,30a2.68,2.68,0,1,1-2.68,2.68A2.68,2.68,0,0,1,117.27,30Z"/><path class="cls-6" d="M187.5,42.49h-2.58V36.93h2.58c6,0,7.84-3.77,7.84-7.84s-1.78-7.94-7.84-7.94h-2.58C184.62,15.2,180.06,12,175,12c-5.26,0-9.93,3.37-9.93,9.83V65.52h19.85V58.27h2.58c6,0,7.84-3.77,7.84-7.84S193.56,42.49,187.5,42.49Z"/></g></g></svg>